<?xml version="1.0" encoding="UTF-8"?>
<!DOCTYPE svg PUBLIC "-//W3C//DTD SVG 1.1//EN" "http://www.w3.org/Graphics/SVG/1.1/DTD/svg11.dtd">
<svg xmlns="http://www.w3.org/2000/svg" version="1.1" width="680px" height="680px" style="shape-rendering:geometricPrecision; text-rendering:geometricPrecision; image-rendering:optimizeQuality; fill-rule:evenodd; clip-rule:evenodd" xmlns:xlink="http://www.w3.org/1999/xlink">
<g><path style="opacity:0" fill="#000000" d="M -0.5,-0.5 C 226.167,-0.5 452.833,-0.5 679.5,-0.5C 679.5,226.167 679.5,452.833 679.5,679.5C 452.833,679.5 226.167,679.5 -0.5,679.5C -0.5,452.833 -0.5,226.167 -0.5,-0.5 Z"/></g>
<g><path style="opacity:1" fill="#ffffff" d="M 206.5,158.5 C 240.622,156.809 263.122,172.143 274,204.5C 274.667,210.167 274.667,215.833 274,221.5C 271.246,231.014 267.913,240.348 264,249.5C 239.047,297.406 215.714,346.072 194,395.5C 187.786,411.688 183.453,428.355 181,445.5C 179.843,458.652 180.509,471.652 183,484.5C 216.876,423.973 256.209,367.306 301,314.5C 318.198,295.635 336.365,277.801 355.5,261C 368.694,250.817 382.694,241.817 397.5,234C 407.375,232.791 416.708,234.457 425.5,239C 430.873,242.018 433.039,246.518 432,252.5C 397.593,288.302 374.926,330.635 364,379.5C 356.437,408.687 353.437,438.354 355,468.5C 360.002,488.179 372.168,494.679 391.5,488C 412.697,477.807 430.863,463.64 446,445.5C 484.032,399.422 508.032,346.755 518,287.5C 520.176,269.454 519.843,251.454 517,233.5C 514.265,221.034 509.598,209.368 503,198.5C 500.81,193.972 501.144,189.639 504,185.5C 516.264,171.12 531.764,165.286 550.5,168C 561.405,173.934 568.239,183.101 571,195.5C 573.297,202.688 574.964,210.022 576,217.5C 578.922,261.385 572.255,303.719 556,344.5C 532.843,403.345 496.677,452.512 447.5,492C 427.575,507.461 405.242,517.795 380.5,523C 343.186,529.02 319.353,513.853 309,477.5C 305.053,457.638 304.386,437.638 307,417.5C 310.114,392.001 316.114,367.334 325,343.5C 304.532,366.295 285.198,389.962 267,414.5C 241.058,449.109 215.891,484.276 191.5,520C 172.997,527.61 158.164,523.11 147,506.5C 133.596,483.824 129.596,459.49 135,433.5C 143.799,389.769 157.799,347.769 177,307.5C 193.451,271.924 211.951,237.59 232.5,204.5C 210.737,202.809 190.737,207.976 172.5,220C 156.688,220.206 145.521,213.039 139,198.5C 138.177,194.262 138.844,190.262 141,186.5C 151.076,176.124 163.243,169.291 177.5,166C 187.24,163.292 196.907,160.792 206.5,158.5 Z"/></g>
</svg>
